# xmcd
#
# Track frame offsets: 
#        150
#        14032
#        32217
#        47517
#        68020
#        81920
#        102155
#        125730
#        147170
#        161457
#
# Disc length: 2370 seconds
#
# Revision: 0
# Processed by: cddbd v1.5.2PL0 Copyright (c) Steve Scherf et al.
# Submitted via: ExactAudioCopy v1.0b1
#
DISCID=8409400a
DTITLE=鄉村二人組 - 旋轉木馬
DYEAR=1998
DGENRE=Country
TTITLE0=旋轉木馬
TTITLE1=拼圖
TTITLE2=我是風
TTITLE3=戀戀情深
TTITLE4=長假
TTITLE5=朋友歌
TTITLE6=堆積
TTITLE7=組曲
TTITLE8=遲到
TTITLE9=今宵多珍重
EXTD=
EXTT0=
EXTT1=
EXTT2=
EXTT3=
EXTT4=
EXTT5=
EXTT6=
EXTT7=
EXTT8=
EXTT9=
PLAYORDER=
